<svg xmlns="http://www.w3.org/2000/svg" xmlns:xlink="http://www.w3.org/1999/xlink" width="133.913" height="90.026" viewBox="0 0 133.913 90.026">
  <defs>
    <linearGradient id="linear-gradient" x1="0.488" y1="0.309" x2="0.005" y2="0.992" gradientUnits="objectBoundingBox">
      <stop offset="0" stop-color="#fff"/>
      <stop offset="1" stop-color="#1c7aad"/>
    </linearGradient>
    <linearGradient id="linear-gradient-3" x1="0.488" y1="0.309" x2="0.005" y2="0.992" gradientUnits="objectBoundingBox">
      <stop offset="0" stop-color="#e6fcff"/>
      <stop offset="1" stop-color="#1c7aad"/>
    </linearGradient>
  </defs>
  <g id="Layer_2" transform="translate(-120 -128)">
    <path id="Path_170" data-name="Path 170" d="M194.533,130.766l28.148,37.567a1.158,1.158,0,0,1-.108,1.51l-.047.047a4.19,4.19,0,0,1-6.28-.4l-28.916-37.431a1.159,1.159,0,0,1,.018-1.435h0A4.558,4.558,0,0,1,194.533,130.766Z" transform="translate(-43.027 -0.604)" fill="#1f8ac6"/>
    <path id="Path_171" data-name="Path 171" d="M147.291,128a3.052,3.052,0,0,0-2.686,1.61L120,175.7v42.323h10.4V175.7l20.817-41.326A4.4,4.4,0,0,0,147.291,128Z" fill="url(#linear-gradient)"/>
    <path id="Path_172" data-name="Path 172" d="M238.533,130.766l28.148,37.567a1.158,1.158,0,0,1-.108,1.51l-.169.169a4.039,4.039,0,0,1-6.054-.387l-29.02-37.567a1.159,1.159,0,0,1,.018-1.435h0A4.558,4.558,0,0,1,238.533,130.766Z" transform="translate(-71.246 -0.604)" fill="#1f8ac6"/>
    <path id="Path_173" data-name="Path 173" d="M191.291,128a3.052,3.052,0,0,0-2.686,1.61L164,175.7v42.323h10.4V175.7l20.817-41.326A4.4,4.4,0,0,0,191.291,128Z" transform="translate(-28.218)" fill="url(#linear-gradient)"/>
    <path id="Path_174" data-name="Path 174" d="M293.533,130.767l28.149,37.567a1.158,1.158,0,0,1-.108,1.51l-.154.154a4.059,4.059,0,0,1-6.079-.387l-29.009-37.549a1.159,1.159,0,0,1,.018-1.435h0A4.556,4.556,0,0,1,293.533,130.767Z" transform="translate(-106.519 -0.605)" fill="#1f8ac6"/>
    <path id="Path_175" data-name="Path 175" d="M246.291,128a3.052,3.052,0,0,0-2.686,1.61L219,175.7v42.323h10.4V175.7l20.817-41.326A4.4,4.4,0,0,0,246.291,128Z" transform="translate(-63.492)" fill="url(#linear-gradient-3)"/>
    <path id="Path_176" data-name="Path 176" d="M337.533,130.766l28.148,37.567a1.158,1.158,0,0,1-.108,1.51h0a4.25,4.25,0,0,1-6.37-.409l-28.873-37.377a1.158,1.158,0,0,1,.018-1.435h0A4.558,4.558,0,0,1,337.533,130.766Z" transform="translate(-134.737 -0.604)" fill="#1f8ac6"/>
    <path id="Path_177" data-name="Path 177" d="M290.291,128a3.052,3.052,0,0,0-2.686,1.61L263,175.7v42.323h10.4V175.7l20.817-41.326A4.4,4.4,0,0,0,290.291,128Z" transform="translate(-91.71)" fill="url(#linear-gradient)"/>
    <g id="Group_383" data-name="Group 383" transform="translate(189.152 179.218)">
      <path id="Path_178" data-name="Path 178" d="M315.031,271.58v7.234H323.4V271.58h2.256v17.292H323.4v-8.106h-8.364v8.106H312.8V271.58Z" transform="translate(-312.8 -271.3)" fill="#fff"/>
      <path id="Path_179" data-name="Path 179" d="M372.383,279.548c0,5.954-3.619,9.107-8.031,9.107-4.566,0-7.772-3.54-7.772-8.773,0-5.491,3.411-9.082,8.031-9.082C369.331,270.8,372.383,274.415,372.383,279.548Zm-13.418.28c0,3.694,2,7,5.516,7,3.54,0,5.541-3.257,5.541-7.184,0-3.436-1.8-7.03-5.516-7.03C360.812,272.618,358.965,276.033,358.965,279.828Z" transform="translate(-340.877 -270.8)" fill="#fff"/>
      <path id="Path_180" data-name="Path 180" d="M422.475,281.278c-.129-2.41-.283-5.312-.258-7.468h-.075c-.592,2.027-1.309,4.182-2.181,6.567l-3.052,8.389h-1.693l-2.8-8.235c-.821-2.439-1.514-4.67-2-6.721h-.05c-.05,2.156-.179,5.054-.334,7.647l-.463,7.414H407.44l1.205-17.292h2.848l2.952,8.364c.717,2.13,1.309,4.028,1.743,5.825h.075c.438-1.743,1.051-3.644,1.822-5.825l3.077-8.364h2.848l1.076,17.292h-2.181Z" transform="translate(-373.495 -271.3)" fill="#fff"/>
      <path id="Path_181" data-name="Path 181" d="M475.2,280.766h-6.721V287h7.493v1.872H466.25V271.58h9.34v1.872h-7.105v5.466h6.721v1.847Z" transform="translate(-411.212 -271.3)" fill="#fff"/>
    </g>
    <g id="Group_384" data-name="Group 384" transform="translate(202.154 204.928)">
      <path id="Path_182" data-name="Path 182" d="M349.631,347.885a1.862,1.862,0,0,0,2.048,1.532c1.323,0,1.833-.664,1.833-1.449,0-.818-.362-1.323-1.955-1.718-1.531-.384-2.2-.879-2.2-1.926,0-.95.692-1.844,2.245-1.844a2.124,2.124,0,0,1,2.36,1.854h-.581A1.619,1.619,0,0,0,351.575,343c-1.044,0-1.614.488-1.614,1.295s.477,1.108,1.811,1.438c2.037.506,2.339,1.323,2.339,2.2,0,1.065-.775,1.987-2.453,1.987a2.32,2.32,0,0,1-2.608-2.03Z" transform="translate(-349.05 -342.48)" fill="#fff"/>
      <path id="Path_183" data-name="Path 183" d="M371.714,346.457H368.02V349.5h4.046l-.083.517H367.46V342.77h4.44v.516H368.02v2.651h3.694Z" transform="translate(-360.857 -342.666)" fill="#fff"/>
      <path id="Path_184" data-name="Path 184" d="M384.85,346.639v3.386h-.57V342.78h2.6c1.428,0,2.184.768,2.184,1.9a1.639,1.639,0,0,1-1.356,1.7c.746.176,1.241.664,1.241,1.894v.28a4.784,4.784,0,0,0,.093,1.471h-.57a4.784,4.784,0,0,1-.1-1.51v-.187c0-1.191-.352-1.686-1.74-1.686H384.85Zm0-.517h1.75c1.273,0,1.862-.477,1.862-1.427,0-.889-.581-1.4-1.707-1.4h-1.9Z" transform="translate(-371.644 -342.672)" fill="#fff"/>
      <path id="Path_185" data-name="Path 185" d="M402.68,350.025l-2.69-7.245h.6l1.406,3.788c.405,1.1.861,2.306,1.015,2.92h.022c.154-.538.653-1.811,1.055-2.877l1.46-3.831h.588l-2.794,7.245Z" transform="translate(-381.719 -342.672)" fill="#fff"/>
      <path id="Path_186" data-name="Path 186" d="M425.05,347.9a2.647,2.647,0,0,1-2.722,2.019c-2.08,0-3.178-1.657-3.178-3.694,0-1.955,1.076-3.737,3.189-3.737a2.536,2.536,0,0,1,2.722,2.08h-.56a2.1,2.1,0,0,0-2.2-1.564c-1.8,0-2.557,1.646-2.557,3.21s.746,3.189,2.6,3.189a2.123,2.123,0,0,0,2.141-1.5h.563Z" transform="translate(-394.007 -342.486)" fill="#fff"/>
      <path id="Path_187" data-name="Path 187" d="M443.924,346.457H440.23V349.5h4.046l-.082.517H439.67V342.77h4.44v.516H440.23v2.651h3.694Z" transform="translate(-407.167 -342.666)" fill="#fff"/>
    </g>
  </g>
</svg>
