<svg xmlns="http://www.w3.org/2000/svg" width="54.784" height="38.025" viewBox="0 0 54.784 38.025">
  <path id="ac" d="M52.235.08H2.929A2.678,2.678,0,0,0,.19,2.8V20.9a2.678,2.678,0,0,0,2.739,2.715H52.235A2.678,2.678,0,0,0,54.974,20.9V2.8A2.678,2.678,0,0,0,52.235.08ZM53.149,20.9a.859.859,0,0,1-.914.905H2.929a.859.859,0,0,1-.914-.905V2.8a.91.91,0,0,1,.914-.905H52.235a.859.859,0,0,1,.914.905V20.9ZM23.93,8.229h7.3a.862.862,0,0,0,.914-.909.861.861,0,0,0-.914-.905h-7.3a.861.861,0,0,0-.914.905A.862.862,0,0,0,23.93,8.229ZM50.41,18.188H4.754a.905.905,0,1,0,0,1.81H50.41a.905.905,0,1,0,0-1.81Zm0-3.624H4.754a.907.907,0,1,0,0,1.814H50.41a.907.907,0,1,0,0-1.814ZM28.039,30.047c-.914-.451-1.37-1-1.37-1.45s.545-1,1.276-1.536a.862.862,0,0,0,.366-1.179.808.808,0,0,0-1.187-.361c-1.459.815-2.284,1.9-2.284,3.079s.825,2.261,2.284,3.166c.914.454,1.369,1,1.369,1.45s-.549,1-1.369,1.45a.8.8,0,0,0-.366,1.175.96.96,0,0,0,.821.454.841.841,0,0,0,.459-.09c1.459-.815,2.28-1.9,2.28-3.079A3.638,3.638,0,0,0,28.039,30.047Zm-10.045,1.81c-.914-.451-1.37-1-1.37-1.446s.549-1,1.28-1.54a.8.8,0,0,0,.366-1.179.814.814,0,0,0-1.19-.361c-1.459.815-2.28,1.9-2.28,3.079s.821,2.264,2.28,3.169c.914.451,1.373,1,1.373,1.446s-.549,1-1.373,1.45a.8.8,0,0,0-.362,1.179.96.96,0,0,0,.821.451.828.828,0,0,0,.455-.09c1.463-.815,2.284-1.9,2.284-3.079A3.636,3.636,0,0,0,17.994,31.857Zm20.087,0c-.911-.451-1.37-1-1.37-1.446s.549-1,1.28-1.54a.864.864,0,0,0,.366-1.179.81.81,0,0,0-1.187-.361c-1.463.815-2.284,1.9-2.284,3.079s.821,2.264,2.284,3.169c.911.451,1.369,1,1.369,1.446s-.549,1-1.369,1.45a.8.8,0,0,0-.366,1.179.96.96,0,0,0,.821.451.828.828,0,0,0,.455-.09c1.463-.815,2.284-1.9,2.284-3.079A3.636,3.636,0,0,0,38.081,31.857Z" transform="translate(-0.19 -0.08)" fill="#0e4dfb"/>
</svg>
