<svg id="Icons_5" data-name="Icons 5" xmlns="http://www.w3.org/2000/svg" width="24" height="24" viewBox="0 0 24 24">
  <g id="Icons_24pt_ic_tab_profile" data-name="Icons / 24pt / ic_tab_profile">
    <path id="ic" d="M23,24H9a1,1,0,0,1,0-2H23a1,1,0,0,1,0,2ZM1.182,24A1,1,0,0,1,.2,23.181a12.012,12.012,0,0,1,9.25-13.9A4.952,4.952,0,0,1,7,5,5,5,0,0,1,17,5a4.951,4.951,0,0,1-2.449,4.278c.431.093.8.191,1.135.3a1,1,0,0,1-.3,1.951,1.014,1.014,0,0,1-.312-.049,10.006,10.006,0,0,0-12.9,11.343,1,1,0,0,1-.8,1.165A.975.975,0,0,1,1.182,24ZM12,2a3,3,0,1,0,3,3A3,3,0,0,0,12,2ZM23,19H17a1,1,0,1,1,0-2h6a1,1,0,1,1,0,2Zm0-5H17a1,1,0,0,1,0-2h6a1,1,0,0,1,0,2Z" fill="#fff"/>
    <g id="bound_24">
      <rect id="bound_24-2" data-name="bound_24" width="24" height="24" fill="none"/>
    </g>
  </g>
</svg>
