<svg xmlns="http://www.w3.org/2000/svg" width="19.912" height="24" viewBox="0 0 19.912 24">
  <path id="Shape" d="M20.424,16.309V11.739a8.591,8.591,0,0,0-6.367-8.348,2.375,2.375,0,0,0,.24-1.043,2.3,2.3,0,1,0-4.6,0,2.375,2.375,0,0,0,.24,1.043,8.591,8.591,0,0,0-6.367,8.348v4.569a2.355,2.355,0,0,0,.766,4.561H8.248a3.814,3.814,0,0,0,7.5,0h3.906a2.355,2.355,0,0,0,.766-4.561ZM12,1.565a.783.783,0,1,1-.766.783A.775.775,0,0,1,12,1.565Zm0,20.87a2.31,2.31,0,0,1-2.166-1.57h4.332A2.31,2.31,0,0,1,12,22.435Zm7.659-3.13H4.341a.783.783,0,0,1,0-1.565H5.873a.783.783,0,0,0,0-1.565H5.107V11.739A6.977,6.977,0,0,1,12,4.7a6.977,6.977,0,0,1,6.893,7.043v4.435h-.767a.783.783,0,0,0,0,1.565h1.532a.783.783,0,0,1,0,1.565ZM12,6.261a5.427,5.427,0,0,0-5.361,5.478.766.766,0,1,0,1.532,0A3.876,3.876,0,0,1,12,7.826a.783.783,0,0,0,0-1.565Z" transform="translate(-2.044)" fill="#fff"/>
</svg>
