<svg xmlns="http://www.w3.org/2000/svg" width="47.293" height="40.342" viewBox="0 0 47.293 40.342">
  <path id="bugs" d="M35.958,25.636H46.547a1.343,1.343,0,0,0,0-2.667H35.958V19.721H38.4a4.455,4.455,0,0,0,4.166-4.682V10.2a1.194,1.194,0,1,0-2.372,0v4.841a1.929,1.929,0,0,1-1.8,2.026H35.938a4.826,4.826,0,0,0-4.532-4.841H16.767a4.811,4.811,0,0,0-4.532,4.841H9.784a1.929,1.929,0,0,1-1.8-2.026V10.2A1.264,1.264,0,0,0,6.794,8.866,1.264,1.264,0,0,0,5.608,10.2v4.841a4.455,4.455,0,0,0,4.166,4.682h2.44v3.248H1.626a1.343,1.343,0,0,0,0,2.667H12.214v2.231c0,.334.021.66.038.986H9.774a4.454,4.454,0,0,0-4.166,4.678v4.841a1.265,1.265,0,0,0,1.186,1.335A1.265,1.265,0,0,0,7.98,38.372V33.531a1.929,1.929,0,0,1,1.8-2.026h2.922c1.388,5.08,5.6,8.787,10.568,8.787H24.9c4.966,0,9.18-3.707,10.568-8.787h2.922a1.929,1.929,0,0,1,1.8,2.026v4.841a1.194,1.194,0,1,0,2.372,0V33.531A4.454,4.454,0,0,0,38.4,28.853H35.921c.017-.326.038-.653.038-.986V25.636ZM14.576,27.878V17.357A2.341,2.341,0,0,1,16.767,14.9H22.9V37.625C18.281,37.4,14.576,33.121,14.576,27.878Zm10.7,9.739V14.9h6.132A2.341,2.341,0,0,1,33.6,17.357V27.878C33.6,33.121,29.892,37.4,25.274,37.617ZM16.555,8.411a1.194,1.194,0,1,0,2.372,0c0-3.206,2.314-5.809,5.168-5.809s5.171,2.6,5.171,5.809a1.194,1.194,0,1,0,2.372,0c0-4.67-3.377-8.461-7.533-8.461S16.555,3.74,16.555,8.411Z" transform="translate(-0.44 0.05)" fill="#0e4dfb"/>
</svg>
