<svg xmlns="http://www.w3.org/2000/svg" width="30.845" height="42.467" viewBox="0 0 30.845 42.467">
  <path id="cleans" d="M29.957,41.519H25.115L10.851,1.127A.779.779,0,0,0,9.889.675a.7.7,0,0,0-.486.9l7.9,22.354H.632a.739.739,0,0,0-.762.713V35.551a.7.7,0,0,0,.279.552.786.786,0,0,0,.483.161.792.792,0,0,0,.148-.013l.5-.09.773,6.313a.745.745,0,0,0,.755.632H15.327a.742.742,0,0,0,.755-.632l.569-4.632a.022.022,0,0,1,.014,0c1.824-.345,2.925-1.123,3.273-2.316.421-1.435-.352-3.358-2.3-5.719l.448-3.648,5.425,15.364H18.824a.713.713,0,1,0,0,1.423H29.957a.713.713,0,1,0,0-1.423ZM1.394,34.687V25.355h6.48V33.5ZM14.648,41.68H3.488l-.71-5.793,6-1.1a.726.726,0,0,0,.614-.7V25.355h7.256l-.362,2.939c-1.173-1.226-2.176-2.077-2.231-2.126a.8.8,0,0,0-1.073.052.681.681,0,0,0,.052,1.006,28.252,28.252,0,0,1,3.018,3Zm3.825-6.535c-.159.545-.71.942-1.635,1.19l.538-4.406C18.214,33.161,18.71,34.332,18.472,35.145ZM3.981,23.371a1.885,1.885,0,1,0,0-3.761,1.885,1.885,0,1,0,0,3.761Zm0-2.335a.456.456,0,1,1-.486.455A.471.471,0,0,1,3.981,21.036Zm6.29-.135a2.505,2.505,0,1,0,0-5,2.505,2.505,0,1,0,0,5Zm0-3.574A1.077,1.077,0,1,1,9.123,18.4,1.113,1.113,0,0,1,10.271,17.326Zm-4.449-.787a.775.775,0,0,0,.738.442.766.766,0,0,0,.69-.506.754.754,0,0,0-1.138-.806.692.692,0,0,0-.29.871C5.84,16.584,5.8,16.5,5.823,16.539Z" transform="translate(0.13 -0.639)" fill="#0e4dfb"/>
</svg>
