<svg xmlns="http://www.w3.org/2000/svg" width="36.007" height="38.919" viewBox="0 0 36.007 38.919">
  <path id="lights" d="M18.444,6.045a12.253,12.253,0,0,0-4.323,23.713v6.556a.723.723,0,0,0,.723.723h.719v1.439a.722.722,0,0,0,.719.723H20.6a.722.722,0,0,0,.719-.723V37.037h.719a.72.72,0,0,0,.719-.723V29.758A12.252,12.252,0,0,0,18.444,6.045ZM20.6,35.6a.72.72,0,0,0-.723.719v1.442H17V36.315a.717.717,0,0,0-.719-.719h-.719v-3.6h5.761v3.6ZM21.82,28.56a.725.725,0,0,0-.5.685v1.3H15.563v-1.3a.725.725,0,0,0-.5-.685,10.8,10.8,0,1,1,6.753,0ZM18.444,4.6a.717.717,0,0,0,.719-.719V1a.719.719,0,0,0-1.439,0V3.883A.717.717,0,0,0,18.444,4.6ZM35.728,17.578H32.847a.719.719,0,0,0,0,1.439h2.881a.719.719,0,0,0,0-1.439Zm-31.688,0H1.159a.719.719,0,0,0,0,1.439H4.04a.719.719,0,0,0,0-1.439ZM30.156,5.556,28.118,7.594a.723.723,0,0,0,.509,1.232.711.711,0,0,0,.509-.213l2.037-2.037a.72.72,0,0,0-1.019-1.019ZM7.75,27.982,5.713,30.02a.72.72,0,0,0,1.019,1.019L8.769,29A.72.72,0,0,0,7.75,27.982Zm21.387,0A.72.72,0,0,0,28.118,29l2.037,2.037a.72.72,0,1,0,1.019-1.019ZM7.75,8.612a.711.711,0,0,0,.509.213.723.723,0,0,0,.509-1.232L6.731,5.556A.72.72,0,0,0,5.713,6.575ZM18.444,9.648A8.654,8.654,0,0,0,9.8,18.3a.719.719,0,1,0,1.439,0,7.213,7.213,0,0,1,7.2-7.207.721.721,0,0,0,0-1.442Z" transform="translate(-0.44 -0.28)" fill="#0e4dfb"/>
</svg>
