<svg xmlns="http://www.w3.org/2000/svg" width="35.176" height="24" viewBox="0 0 35.176 24">
  <g id="more" transform="translate(-308 -750)">
    <path id="ic_more_horiz_24px" d="M8.4,10a4.4,4.4,0,1,0,4.4,4.4A4.41,4.41,0,0,0,8.4,10Zm26.382,0a4.4,4.4,0,1,0,4.4,4.4A4.41,4.41,0,0,0,34.779,10ZM21.588,10a4.4,4.4,0,1,0,4.4,4.4A4.41,4.41,0,0,0,21.588,10Z" transform="translate(304 750)" fill="#fff"/>
    <path id="ic_more_horiz_24px-2" data-name="ic_more_horiz_24px" d="M7,10a2.834,2.834,0,0,0-3,2.611,2.834,2.834,0,0,0,3,2.611,2.834,2.834,0,0,0,3-2.611A2.834,2.834,0,0,0,7,10Zm18,0a2.834,2.834,0,0,0-3,2.611,2.834,2.834,0,0,0,3,2.611,2.834,2.834,0,0,0,3-2.611A2.834,2.834,0,0,0,25,10Zm-9,0a2.834,2.834,0,0,0-3,2.611,2.834,2.834,0,0,0,3,2.611,2.834,2.834,0,0,0,3-2.611A2.834,2.834,0,0,0,16,10Z" transform="translate(312.977 778) rotate(-90)" fill="none"/>
  </g>
</svg>
