<svg xmlns="http://www.w3.org/2000/svg" width="26.038" height="25.892" viewBox="0 0 26.038 25.892">
  <g id="receipt" transform="translate(0.25 -0.043)">
    <path id="Path_8944" data-name="Path 8944" d="M25.538,2a1.7,1.7,0,0,0-1.7-1.7H1.7a1.7,1.7,0,0,0-.426,3.345V24.3l1.277-1.277,2.554,2.554,2.554-2.554,2.554,2.554,2.554-2.554,2.554,2.554,2.554-2.554,2.554,2.554,2.554-2.554L24.261,24.3V3.638A1.7,1.7,0,0,0,25.538,2ZM23.41,22.25l-.426-.426L20.43,24.378l-2.554-2.554-2.554,2.554-2.554-2.554-2.554,2.554L7.661,21.824,5.108,24.378,2.554,21.824l-.426.426V2.421H23.41V22.25Zm.851-19.517V1.57H1.277V2.732A.851.851,0,0,1,1.7,1.144H23.835a.851.851,0,0,1,.426,1.588Z" fill="#fff" stroke="#fff" stroke-width="0.5"/>
    <path id="Union_5" data-name="Union 5" d="M-2679.511,2013.021a.445.445,0,0,1-.124-.3.437.437,0,0,1,.124-.3.445.445,0,0,1,.6,0,.439.439,0,0,1,.123.3.448.448,0,0,1-.123.3.449.449,0,0,1-.3.123A.444.444,0,0,1-2679.511,2013.021Zm-8.211.123a.426.426,0,0,1-.426-.426.425.425,0,0,1,.426-.426h6.385a.426.426,0,0,1,.426.426.426.426,0,0,1-.426.426Z" transform="translate(2700.066 -1996)" fill="#fff" stroke="#fff" stroke-width="0.2"/>
    <path id="Union_3" data-name="Union 3" d="M-2686.02,2013.144a.426.426,0,0,1-.426-.426.425.425,0,0,1,.426-.426h6.385a.425.425,0,0,1,.426.426.426.426,0,0,1-.426.426Zm-2.005-.123a.44.44,0,0,1-.123-.3.44.44,0,0,1,.123-.3.446.446,0,0,1,.6,0,.439.439,0,0,1,.123.3.439.439,0,0,1-.123.3.449.449,0,0,1-.3.123A.449.449,0,0,1-2688.025,2013.021Z" transform="translate(2700.491 -2000)" fill="#fff" stroke="#fff" stroke-width="0.2"/>
    <path id="Union_4" data-name="Union 4" d="M-2679.511,2013.021a.445.445,0,0,1-.124-.3.437.437,0,0,1,.124-.3.445.445,0,0,1,.6,0,.448.448,0,0,1,.123.3.448.448,0,0,1-.123.3.44.44,0,0,1-.3.123A.444.444,0,0,1-2679.511,2013.021Zm-8.211.123a.426.426,0,0,1-.426-.426.425.425,0,0,1,.426-.426h6.385a.426.426,0,0,1,.426.426.426.426,0,0,1-.426.426Z" transform="translate(2700.066 -2004)" fill="#fff" stroke="#fff" stroke-width="0.2"/>
    <path id="Path_8954" data-name="Path 8954" d="M13.554,20.187v-.469a.426.426,0,1,0-.851,0v.47a2.122,2.122,0,0,0-1.2.71,1.463,1.463,0,0,0-.338,1.108,1.553,1.553,0,0,0,.589,1.06l.949.738v2.315a1.275,1.275,0,0,1-.851-1.2.426.426,0,1,0-.851,0,2.132,2.132,0,0,0,1.7,2.085v.374a.426.426,0,0,0,.851,0V27a2.124,2.124,0,0,0,1.2-.71,1.466,1.466,0,0,0,.338-1.109,1.552,1.552,0,0,0-.589-1.059l-.949-.738V21.074a1.275,1.275,0,0,1,.851,1.2.426.426,0,1,0,.851,0A2.132,2.132,0,0,0,13.554,20.187ZM13.98,24.8a.7.7,0,0,1,.265.476.62.62,0,0,1-.141.47,1.272,1.272,0,0,1-.55.372V24.467Zm-1.7-2.4a.7.7,0,0,1-.265-.477.622.622,0,0,1,.141-.47,1.272,1.272,0,0,1,.55-.372v1.65Z" transform="translate(-6.318 -10.913)" fill="#fff" stroke="#fff" stroke-width="0.2"/>
    <circle id="Ellipse_643" data-name="Ellipse 643" cx="0.5" cy="0.5" r="0.5" transform="translate(14.852 4.293)" fill="#fff" stroke="#fff" stroke-width="0.5"/>
    <circle id="Ellipse_645" data-name="Ellipse 645" cx="0.5" cy="0.5" r="0.5" transform="translate(20.852 4.293)" fill="#fff" stroke="#fff" stroke-width="0.5"/>
    <circle id="Ellipse_651" data-name="Ellipse 651" cx="0.5" cy="0.5" r="0.5" transform="translate(9.852 4.293)" fill="#fff" stroke="#fff" stroke-width="0.5"/>
    <circle id="Ellipse_652" data-name="Ellipse 652" cx="0.5" cy="0.5" r="0.5" transform="translate(3.852 4.293)" fill="#fff" stroke="#fff" stroke-width="0.5"/>
  </g>
</svg>
