<svg xmlns="http://www.w3.org/2000/svg" width="38.199" height="38.202" viewBox="0 0 38.199 38.202">
  <path id="saw" d="M.861,18.464H3.3a.367.367,0,0,0,.084-.006.06.06,0,0,0,.022,0,.379.379,0,0,0,.081-.019s.006,0,.009,0a.758.758,0,0,0,.074-.031s.009,0,.012-.006c.025-.012.05-.031.074-.047a.01.01,0,0,1,.006,0l.949-.707.946.707a.619.619,0,0,0,.729,0l.946-.707.946.707a.619.619,0,0,0,.729,0l.946-.707.946.707a.619.619,0,0,0,.729,0l.946-.707.946.707a.619.619,0,0,0,.729,0l.946-.707.946.707a.619.619,0,0,0,.729,0l.946-.707.946.707a.619.619,0,0,0,.729,0l.946-.707.946.707a.619.619,0,0,0,.729,0l.946-.707.946.7a.043.043,0,0,0,.012.009l.028.019a.078.078,0,0,0,.022.012.1.1,0,0,0,.031.016.062.062,0,0,0,.025.012.11.11,0,0,0,.028.012l.028.009.028.009.031.009c.006,0,.016,0,.025,0l.034.006a.068.068,0,0,1,.025,0H26.7a.609.609,0,0,0,.608-.608V16.433h1.222v1.423a.609.609,0,0,0,.608.608h6.67a2.642,2.642,0,1,0,0-5.284h-6.67a.611.611,0,0,0-.608.611v1.423H27.308V4.24A3.863,3.863,0,0,0,23.447.38H4.11A3.865,3.865,0,0,0,.25,4.24V17.856A.609.609,0,0,0,.861,18.464ZM29.748,14.4h6.059a1.422,1.422,0,1,1,0,2.843H29.748V14.4Zm-6.1-1.222H3.906V4.24a.215.215,0,0,1,.2-.2H23.447a.215.215,0,0,1,.2.2v8.94Zm-1.064,3.212-.946.7-.946-.7a.609.609,0,0,0-.729,0l-.946.7-.946-.7a.609.609,0,0,0-.729,0l-.946.7-.946-.7a.609.609,0,0,0-.729,0l-.946.7-.946-.7a.609.609,0,0,0-.729,0l-.946.7-.949-.7a.6.6,0,0,0-.726,0l-.946.7-.949-.7a.6.6,0,0,0-.726,0l-.949.7-.946-.707a.619.619,0,0,0-.729,0l-.338.254V14.4H23.652v2.239l-.335-.248A.609.609,0,0,0,22.588,16.393ZM1.469,4.24A2.644,2.644,0,0,1,4.11,1.6H23.447A2.644,2.644,0,0,1,26.089,4.24v13H24.87v-13a1.442,1.442,0,0,0-1.423-1.423H4.11A1.442,1.442,0,0,0,2.687,4.24v13H1.469ZM37.838,20.5H.861a.609.609,0,0,0-.611.608V37.974a.609.609,0,0,0,.611.608H37.838a.609.609,0,0,0,.611-.608V27.611A.61.61,0,0,0,37.838,27H35.624a1.423,1.423,0,1,1,0-2.847h2.214a.609.609,0,0,0,.611-.608v-2.44A.609.609,0,0,0,37.838,20.5ZM1.469,37.363V32.889A165.352,165.352,0,0,1,19.283,34,167.431,167.431,0,0,0,37.23,35.121v2.242ZM37.23,22.935H35.624a2.642,2.642,0,1,0,0,5.284H37.23v2.229a159.91,159.91,0,0,1-17.082-1.067l-.307-.034c-3.371-.357-6.856-.729-11.715-.949a.61.61,0,1,0-.056,1.219c4.825.22,8.288.586,11.64.943l.307.034A159.4,159.4,0,0,0,37.23,31.667V33.9A166.241,166.241,0,0,1,19.413,32.79,166.313,166.313,0,0,0,1.469,31.667V29.431c1.448.019,2.85.05,4.171.093h.022a.609.609,0,0,0,.019-1.219c-1.336-.043-2.747-.074-4.211-.093v-6.5H37.23v1.219ZM24.148,27a.609.609,0,1,0-.608-.611A.61.61,0,0,0,24.148,27Zm2.44-1.625a.611.611,0,1,0-.611-.611A.609.609,0,0,0,26.588,25.376Z" transform="translate(-0.25 -0.38)" fill="#0e4dfb"/>
</svg>
