<svg id="ic_setting" xmlns="http://www.w3.org/2000/svg" width="24" height="24" viewBox="0 0 24 24">
  <g id="setting">
    <circle id="Oval" cx="5.133" cy="5.133" r="5.133" transform="translate(6.906 6.879)" fill="none" stroke="#fff" stroke-linecap="round" stroke-width="2"/>
    <path id="Shape" d="M21.34,9.263,19.54,8.8a8.743,8.743,0,0,0-.929-2.232l.956-1.623a.88.88,0,0,0-.136-1.069L18.18,2.624a.88.88,0,0,0-1.069-.136l-1.622.953a8.744,8.744,0,0,0-2.237-.931L12.775.66A.88.88,0,0,0,11.923,0H10.154A.88.88,0,0,0,9.3.66L8.826,2.5a8.742,8.742,0,0,0-2.252.933L4.916,2.46A.88.88,0,0,0,3.847,2.6L2.6,3.847A.88.88,0,0,0,2.46,4.916l.976,1.657a8.744,8.744,0,0,0-.921,2.21L.66,9.263a.88.88,0,0,0-.66.852v1.769a.88.88,0,0,0,.66.852l1.841.477a8.744,8.744,0,0,0,.943,2.277L2.49,17.112a.88.88,0,0,0,.136,1.069l1.251,1.251a.88.88,0,0,0,1.069.136l1.623-.956a8.743,8.743,0,0,0,2.273.941L9.3,21.34a.88.88,0,0,0,.852.66h1.769a.88.88,0,0,0,.852-.66l.465-1.8A8.745,8.745,0,0,0,15.5,18.6l1.587.935a.88.88,0,0,0,1.069-.136L19.4,18.151a.88.88,0,0,0,.136-1.069l-.935-1.587a8.743,8.743,0,0,0,.95-2.295l1.785-.462a.88.88,0,0,0,.66-.853V10.116A.88.88,0,0,0,21.34,9.263Z" transform="translate(1 1)" fill="none" stroke="#fff" stroke-linecap="round" stroke-width="2" fill-rule="evenodd"/>
  </g>
  <g id="bound_24">
    <rect id="bound_24-2" data-name="bound_24" width="24" height="24" fill="none"/>
    <text id="_24" data-name="24" transform="translate(12 16)" fill="none" font-size="12" font-family="Montserrat-Regular, Montserrat"><tspan x="-7.236" y="0">24</tspan></text>
  </g>
</svg>
