<svg xmlns="http://www.w3.org/2000/svg" width="46.99" height="47" viewBox="0 0 46.99 47">
  <path id="settigns" d="M30.434,34.419c-.494-.3-1-.6-1.506-.89a13.3,13.3,0,0,0,0-3.059c.51-.29,1.016-.592,1.506-.886a1.985,1.985,0,0,0,.8-2.444h0l-1.083-2.608a1.973,1.973,0,0,0-2.291-1.157c-.557.137-1.13.286-1.694.435a13.277,13.277,0,0,0-2.165-2.161c.153-.565.3-1.137.439-1.694a1.98,1.98,0,0,0-1.157-2.294L20.68,16.58a1.981,1.981,0,0,0-2.444.8c-.294.494-.6,1-.886,1.51a13.085,13.085,0,0,0-3.059,0c-.294-.51-.592-1.016-.886-1.51a1.981,1.981,0,0,0-2.444-.8L8.352,17.659A1.98,1.98,0,0,0,7.2,19.954c.137.561.286,1.13.439,1.694A13.147,13.147,0,0,0,5.47,23.813c-.569-.153-1.137-.3-1.694-.439a1.98,1.98,0,0,0-2.294,1.157L.4,27.139a1.987,1.987,0,0,0,.8,2.444c.49.3,1,.6,1.506.886a13.3,13.3,0,0,0,0,3.059c-.51.294-1.016.592-1.506.89a1.98,1.98,0,0,0-.8,2.44l1.083,2.608a1.979,1.979,0,0,0,2.291,1.161c.557-.137,1.126-.286,1.694-.439a13.123,13.123,0,0,0,2.165,2.161c-.153.569-.3,1.137-.439,1.694a1.978,1.978,0,0,0,1.157,2.294l2.608,1.083a2.009,2.009,0,0,0,.749.149,1.984,1.984,0,0,0,1.694-.953c.294-.49.592-1,.886-1.506a13.3,13.3,0,0,0,3.059,0c.29.506.588,1.012.886,1.506a1.987,1.987,0,0,0,2.444.8l2.608-1.083a1.978,1.978,0,0,0,1.157-2.294c-.137-.553-.282-1.122-.439-1.69a13.146,13.146,0,0,0,2.165-2.165c.565.153,1.134.3,1.694.439a1.979,1.979,0,0,0,2.291-1.161l1.083-2.608A1.98,1.98,0,0,0,30.434,34.419Zm-2.177,4.138c-.533-.133-1.083-.275-1.624-.424a1.974,1.974,0,0,0-2.067.69,11.185,11.185,0,0,1-1.926,1.926,1.965,1.965,0,0,0-.686,2.067c.145.545.29,1.09.424,1.624l-2.4.992c-.282-.475-.569-.961-.847-1.447a1.968,1.968,0,0,0-1.949-.973,11.285,11.285,0,0,1-2.722,0,1.965,1.965,0,0,0-1.949.973c-.282.49-.565.977-.847,1.447l-2.4-.992c.137-.537.278-1.083.424-1.624A1.96,1.96,0,0,0,9,40.749a11.026,11.026,0,0,1-1.922-1.926,1.967,1.967,0,0,0-2.067-.69c-.545.149-1.09.29-1.624.424l-.992-2.4c.471-.286.957-.569,1.447-.851a1.966,1.966,0,0,0,.973-1.945,11.121,11.121,0,0,1,0-2.726,1.959,1.959,0,0,0-.973-1.945c-.486-.282-.973-.569-1.447-.851l.992-2.4c.533.137,1.079.278,1.624.424a1.96,1.96,0,0,0,2.067-.69A11.026,11.026,0,0,1,9,23.252a1.965,1.965,0,0,0,.686-2.067c-.145-.541-.286-1.09-.424-1.624l2.4-1c.282.475.569.961.847,1.447a1.971,1.971,0,0,0,1.949.977,10.9,10.9,0,0,1,2.722,0,1.971,1.971,0,0,0,1.949-.977c.278-.486.565-.973.847-1.447l2.4,1c-.137.533-.278,1.079-.424,1.624a1.965,1.965,0,0,0,.686,2.067,10.915,10.915,0,0,1,1.926,1.926,1.965,1.965,0,0,0,2.067.686c.545-.145,1.09-.286,1.624-.424l.992,2.4c-.471.282-.957.569-1.447.847a1.968,1.968,0,0,0-.973,1.949,11.286,11.286,0,0,1,0,2.722,1.962,1.962,0,0,0,.973,1.949c.486.278.973.565,1.447.851Zm-5.813-9.3h0a7.17,7.17,0,1,0-9.366,9.366,7.119,7.119,0,0,0,5.483,0A7.181,7.181,0,0,0,22.445,29.257Zm-4.687,7.425A5.066,5.066,0,1,1,20.5,30.061,5.028,5.028,0,0,1,17.758,36.682ZM45.829,9.834c-.365-.055-.737-.106-1.114-.157a9.57,9.57,0,0,0-.753-1.82c.231-.3.459-.6.675-.9a1.68,1.68,0,0,0-.161-2.169L43.025,3.339a1.68,1.68,0,0,0-2.169-.161c-.3.22-.6.447-.9.675a9.571,9.571,0,0,0-1.82-.753c-.047-.377-.1-.749-.157-1.114A1.673,1.673,0,0,0,36.333.57H34.282a1.67,1.67,0,0,0-1.647,1.416c-.055.365-.11.737-.157,1.114a9.466,9.466,0,0,0-1.82.753c-.3-.231-.6-.455-.9-.675a1.679,1.679,0,0,0-2.169.161L26.14,4.79a1.68,1.68,0,0,0-.161,2.169c.216.3.443.6.675.9a9.847,9.847,0,0,0-.757,1.82c-.373.051-.745.1-1.11.157a1.676,1.676,0,0,0-1.416,1.647v2.055a1.676,1.676,0,0,0,1.416,1.647c.365.055.737.106,1.11.157a9.847,9.847,0,0,0,.757,1.82c-.231.3-.459.6-.675.9a1.68,1.68,0,0,0,.161,2.169l1.451,1.451a1.679,1.679,0,0,0,2.169.161c.3-.22.6-.447.9-.675a9.535,9.535,0,0,0,1.816.753c.051.377.106.749.161,1.114a1.67,1.67,0,0,0,1.647,1.416h2.051a1.673,1.673,0,0,0,1.647-1.416c.055-.365.11-.737.157-1.114a9.571,9.571,0,0,0,1.82-.753c.3.227.6.455.9.675a1.68,1.68,0,0,0,2.169-.161l1.451-1.451a1.68,1.68,0,0,0,.161-2.169c-.22-.3-.443-.6-.675-.9a9.57,9.57,0,0,0,.753-1.82c.377-.051.749-.1,1.114-.157a1.676,1.676,0,0,0,1.416-1.647V11.482A1.676,1.676,0,0,0,45.829,9.834Zm-.58,3.416c-.329.047-.667.094-1,.137A1.66,1.66,0,0,0,42.852,14.6a7.688,7.688,0,0,1-.733,1.773,1.658,1.658,0,0,0,.129,1.84c.208.271.412.541.612.808l-1.047,1.047c-.267-.2-.537-.408-.808-.612a1.665,1.665,0,0,0-1.84-.133,7.8,7.8,0,0,1-1.773.737,1.666,1.666,0,0,0-1.208,1.392c-.043.337-.09.675-.137,1H34.568c-.047-.329-.094-.667-.141-1a1.661,1.661,0,0,0-1.2-1.392,7.9,7.9,0,0,1-1.777-.733,1.652,1.652,0,0,0-1.836.129c-.271.2-.541.412-.808.612l-1.047-1.047c.2-.267.4-.537.612-.808a1.658,1.658,0,0,0,.129-1.84,7.688,7.688,0,0,1-.733-1.773,1.665,1.665,0,0,0-1.392-1.208c-.337-.043-.675-.09-1-.137V11.768c.329-.047.667-.094,1-.137a1.665,1.665,0,0,0,1.392-1.208A7.688,7.688,0,0,1,28.5,8.65a1.658,1.658,0,0,0-.129-1.84c-.208-.271-.412-.541-.612-.808L28.8,4.955c.267.2.537.408.808.612a1.659,1.659,0,0,0,1.836.133,7.907,7.907,0,0,1,1.777-.737,1.661,1.661,0,0,0,1.2-1.392c.047-.337.09-.675.141-1h1.479c.047.329.094.667.137,1a1.666,1.666,0,0,0,1.208,1.392,7.8,7.8,0,0,1,1.773.737A1.665,1.665,0,0,0,41,5.567c.271-.2.541-.412.808-.612L42.86,6c-.2.267-.4.537-.612.808a1.658,1.658,0,0,0-.129,1.84,7.865,7.865,0,0,1,.733,1.773,1.66,1.66,0,0,0,1.392,1.208c.337.043.675.09,1,.137v1.483Zm-9.943-5a4.26,4.26,0,1,0,4.26,4.26A4.263,4.263,0,0,0,35.306,8.25Zm0,6.625a2.365,2.365,0,1,1,2.369-2.365A2.368,2.368,0,0,1,35.306,14.874Z" transform="translate(-0.255 -0.57)" fill="#0e4dfb"/>
</svg>
