<svg xmlns="http://www.w3.org/2000/svg" width="44.929" height="46.276" viewBox="0 0 44.929 46.276">
  <path id="water" d="M20.42,5.6a.823.823,0,0,0-.815.826v1.26H13.6V1.6h1.24a.822.822,0,0,0,.819-.826.822.822,0,0,0-.819-.826H.879A.822.822,0,0,0,.06.776.822.822,0,0,0,.879,1.6H2.122V13.488A5.779,5.779,0,0,0,7.86,19.3H19.606v1.256a.817.817,0,1,0,1.633,0V6.423A.822.822,0,0,0,20.42,5.6ZM7.86,17.644a4.137,4.137,0,0,1-4.109-4.156V1.6h8.213V8.509a.821.821,0,0,0,.815.826h6.827v8.309ZM44.17,25.4H42.926V13.516A5.778,5.778,0,0,0,37.189,7.71H25.443V6.451a.817.817,0,1,0-1.633,0v14.13a.817.817,0,1,0,1.633,0v-1.26h6.008V25.4H30.207a.827.827,0,0,0,0,1.653H44.17a.827.827,0,0,0,0-1.653Zm-11.9-7.732H25.443V9.359H37.189a4.134,4.134,0,0,1,4.1,4.156V25.4H33.084V18.494A.821.821,0,0,0,32.269,17.668Zm4.919,11.964a.822.822,0,0,0-.672.358c-.517.759-5.066,7.506-5.066,10.427a5.738,5.738,0,1,0,11.476,0c0-2.921-4.546-9.668-5.066-10.427A.812.812,0,0,0,37.189,29.632Zm0,14.94a4.136,4.136,0,0,1-4.1-4.156c0-1.605,2.3-5.686,4.1-8.476,1.808,2.789,4.1,6.87,4.1,8.476A4.134,4.134,0,0,1,37.189,44.573Z" transform="translate(-0.06 0.05)" fill="#0e4dfb"/>
</svg>
